<?xml version="1.0" encoding="utf-8"?>
<!-- Generator: Adobe Illustrator 22.1.0, SVG Export Plug-In . SVG Version: 6.00 Build 0)  -->
<svg version="1.1" id="レイヤー_1" xmlns="http://www.w3.org/2000/svg" xmlns:xlink="http://www.w3.org/1999/xlink" x="0px"
	 y="0px" viewBox="0 0 100 100" style="enable-background:new 0 0 100 100;" xml:space="preserve">
<style type="text/css">
	.st0{fill:#FDAE3A;}
	.st1{opacity:0.3;}
	.st2{fill:url(#SVGID_1_);}
	.st3{fill:#F4EBE3;}
	.st4{fill:url(#SVGID_2_);}
	.st5{fill:url(#SVGID_3_);}
	.st6{fill:#BABABA;}
	.st7{fill:#EA407A;}
	.st8{fill:#6F98FF;}
	.st9{fill:#03A9F5;}
	.st10{fill:none;}
	.st11{opacity:0.5;fill:#EEEEEF;}
	.st12{fill:url(#SVGID_4_);}
	.st13{fill:#D7E9F4;}
	.st14{fill:#C5D7FC;}
	.st15{fill:#F4E3E6;}
	.st16{fill:#EBEBEB;}
	.st17{fill:#FFFFFF;}
	.st18{fill:url(#SVGID_5_);}
	.st19{fill:none;stroke:url(#SVGID_6_);stroke-width:3;stroke-miterlimit:10;}
	.st20{fill:url(#SVGID_7_);}
	.st21{fill:url(#SVGID_8_);}
	.st22{fill:#6187F7;}
	.st23{fill:none;stroke:url(#SVGID_9_);stroke-width:5;stroke-miterlimit:10;}
	.st24{opacity:0.6;}
	.st25{fill:url(#SVGID_10_);}
	.st26{fill:url(#SVGID_11_);}
	.st27{fill:url(#SVGID_12_);}
	.st28{fill:url(#SVGID_13_);}
	.st29{fill:url(#SVGID_14_);}
	.st30{fill:url(#SVGID_15_);}
</style>
<path class="st0" d="M95,100h-90c-2.8,0-5-2.2-5-5L0,5c0-2.8,2.2-5,5-5l90,0c2.8,0,5,2.2,5,5v90C100,97.8,97.8,100,95,100z"/>
<g class="st1">
	<g>
		
			<linearGradient id="SVGID_1_" gradientUnits="userSpaceOnUse" x1="-1593.9833" y1="3.492978e-07" x2="-1593.9833" y2="100" gradientTransform="matrix(-1 0 0 1 -1543.9833 0)">
			<stop  offset="0" style="stop-color:#00B9F5"/>
			<stop  offset="0" style="stop-color:#6F98FF;stop-opacity:0"/>
			<stop  offset="1" style="stop-color:#C08D4B;stop-opacity:0.7"/>
		</linearGradient>
		<path class="st2" d="M0,5l0,90c0,2.8,2.2,5,5,5h90c2.8,0,5-2.2,5-5V5c0-2.8-2.2-5-5-5L5,0C2.2,0,0,2.2,0,5z M5,9.5C5,7,7,5,9.5,5
			h81C93,5,95,7,95,9.5v81c0,2.5-2,4.5-4.5,4.5h-81C7,95,5,93,5,90.5V9.5z"/>
	</g>
</g>
<g>
	<path class="st3" d="M16.5,43.2v10.8l9.3,5.4V48.5L16.5,43.2z M19.9,53.3c-0.6-0.4-1.1-1.2-1.1-1.9c0-0.7,0.5-1,1.1-0.6
		c0.6,0.4,1.1,1.2,1.1,1.9C21,53.3,20.5,53.6,19.9,53.3z M22.5,51.8c-0.6-0.4-1.1-1.2-1.1-1.9c0-0.7,0.5-1,1.1-0.6
		c0.6,0.4,1.1,1.2,1.1,1.9C23.6,51.8,23.1,52.1,22.5,51.8z"/>
	<path class="st3" d="M26.4,48.5v10.8l9.3-5.4V43.2L26.4,48.5z M29.2,55.8c-0.6,0.4-1.1,0.1-1.1-0.6c0-0.7,0.5-1.6,1.1-1.9
		c0.6-0.4,1.1-0.1,1.1,0.6C30.3,54.6,29.8,55.5,29.2,55.8z M31.1,52.5c-0.6,0.4-1.1,0.1-1.1-0.6c0-0.7,0.5-1.6,1.1-1.9
		c0.6-0.4,1.1-0.1,1.1,0.6C32.2,51.3,31.7,52.2,31.1,52.5z M33,49.2c-0.6,0.4-1.1,0.1-1.1-0.6c0-0.7,0.5-1.6,1.1-1.9
		c0.6-0.4,1.1-0.1,1.1,0.6C34.1,48,33.6,48.8,33,49.2z"/>
	<path class="st3" d="M26.1,37.2l-9.3,5.4l9.3,5.4l9.3-5.4L26.1,37.2z M27.8,43.3c-0.9,0.5-2.4,0.5-3.3,0c-0.9-0.5-0.9-1.4,0-1.9
		c0.9-0.5,2.4-0.5,3.3,0C28.7,41.9,28.7,42.7,27.8,43.3z"/>
</g>
<g>
	<path class="st3" d="M57.8,42V24.1l-4.5,3.9v-4.4l4.5-3.9h4.1V42H57.8z"/>
</g>
<rect x="43.1" y="47.8" class="st3" width="31" height="3.9"/>
<g>
	<path class="st3" d="M63.9,76.7v3.1h-3.8v-3.1h-8.8V73l7.4-14.8H63L55.6,73h4.5v-4h3.8v4h2v3.7H63.9z"/>
</g>
</svg>
