<?xml version="1.0" encoding="utf-8"?>
<!-- Generator: Adobe Illustrator 22.1.0, SVG Export Plug-In . SVG Version: 6.00 Build 0)  -->
<svg version="1.1" id="レイヤー_1" xmlns="http://www.w3.org/2000/svg" xmlns:xlink="http://www.w3.org/1999/xlink" x="0px"
	 y="0px" viewBox="0 0 80 80" style="enable-background:new 0 0 80 80;" xml:space="preserve">
<style type="text/css">
	.st0{fill:#DDDDDD;}
	.st1{fill:#FDAE3A;}
	.st2{opacity:0.3;}
	.st3{fill:url(#SVGID_1_);}
	.st4{fill:#F4EBE3;}
	.st5{fill:url(#SVGID_2_);}
	.st6{fill:url(#SVGID_3_);}
	.st7{fill:#EA407A;}
	.st8{opacity:0.6;}
	.st9{fill:url(#SVGID_4_);}
	.st10{fill:#6F98FF;}
	.st11{fill:#03A9F5;}
	.st12{fill:#BABABA;}
	.st13{fill:none;}
	.st14{opacity:0.5;fill:#EEEEEF;}
	.st15{fill:url(#SVGID_5_);}
	.st16{fill:url(#SVGID_6_);}
	.st17{fill:#D7E9F4;}
	.st18{fill:#C5D7FC;}
	.st19{fill:#F4E3E6;}
	.st20{fill:#FFFFFF;}
	.st21{fill:url(#SVGID_7_);}
	.st22{fill:none;stroke:url(#SVGID_8_);stroke-width:3;stroke-miterlimit:10;}
	.st23{fill:url(#SVGID_9_);}
	.st24{fill:url(#SVGID_10_);}
	.st25{fill:#29C84E;}
	.st26{fill:#192734;}
	.st27{fill:#364B5E;}
	.st28{fill:#C1D4E6;}
	.st29{fill:url(#SVGID_11_);}
	.st30{fill:#6187F7;}
	.st31{fill:none;stroke:url(#SVGID_12_);stroke-width:5;stroke-miterlimit:10;}
	.st32{fill:url(#SVGID_13_);}
	.st33{fill:url(#SVGID_14_);}
	.st34{fill:url(#SVGID_15_);}
	.st35{fill:url(#SVGID_16_);}
	.st36{fill:url(#SVGID_17_);}
	.st37{fill:url(#SVGID_18_);}
	.st38{fill:none;stroke:#F4EBE3;stroke-width:4;stroke-miterlimit:10;}
	.st39{fill:none;stroke:#FDAE3A;stroke-width:3;stroke-miterlimit:10;}
	.st40{fill:url(#SVGID_19_);}
</style>
<path class="st1" d="M76,80h-72c-2.2,0-4-1.8-4-4l0-72c0-2.2,1.8-4,4-4l72,0c2.2,0,4,1.8,4,4v72C80,78.2,78.2,80,76,80z"/>
<g class="st2">
	<linearGradient id="SVGID_1_" gradientUnits="userSpaceOnUse" x1="39.9905" y1="-3.892794e-05" x2="39.9905" y2="79.981">
		<stop  offset="0" style="stop-color:#00B9F5"/>
		<stop  offset="0" style="stop-color:#6F98FF;stop-opacity:0"/>
		<stop  offset="1" style="stop-color:#C08D4B;stop-opacity:0.7"/>
	</linearGradient>
	<path class="st3" d="M76,0H4C1.8,0,0,1.8,0,4v72c0,2.2,1.8,4,4,4h72c2.2,0,4-1.8,4-4V4C80,1.8,78.2,0,76,0z M74,70.6
		c0,1.9-1.5,3.4-3.4,3.4H9.4C7.5,74,6,72.5,6,70.6V9.4C6,7.5,7.5,6,9.4,6h61.2C72.5,6,74,7.5,74,9.4V70.6z"/>
</g>
<path class="st38" d="M40,14.5C26,14.5,14.6,25.9,14.6,40S26,65.4,40,65.4C54.1,65.4,65.5,54,65.5,40S54.1,14.5,40,14.5z"/>
<circle class="st4" cx="40" cy="40" r="3"/>
<g>
	<path class="st4" d="M40,14.5c-7,0-13.4,2.8-18,7.5l14.3,14.3c0.9-0.9,2.2-1.5,3.7-1.5c1.4,0,2.7,0.6,3.7,1.5L58,22
		C53.4,17.4,47.1,14.5,40,14.5z"/>
</g>
</svg>
