<?xml version="1.0" encoding="utf-8"?>
<!-- Generator: Adobe Illustrator 22.1.0, SVG Export Plug-In . SVG Version: 6.00 Build 0)  -->
<!DOCTYPE svg PUBLIC "-//W3C//DTD SVG 1.1//EN" "http://www.w3.org/Graphics/SVG/1.1/DTD/svg11.dtd">
<svg version="1.1" id="レイヤー_1" xmlns="http://www.w3.org/2000/svg" xmlns:xlink="http://www.w3.org/1999/xlink" x="0px"
	 y="0px" viewBox="0 0 16 16" style="enable-background:new 0 0 16 16;" xml:space="preserve">
<style type="text/css">
	.st0{fill:#FFFFFF;}
	.st1{fill:none;stroke:#7A7A7A;stroke-miterlimit:10;}
	.st2{fill:#FFFFFF;stroke:#7A7A7A;stroke-miterlimit:10;}
</style>
<g>
	<g>
		<path class="st0" d="M13,3.5H3C1.6,3.5,0.5,4.6,0.5,6v7c0,1.4,1.1,2.5,2.5,2.5h10c1.4,0,2.5-1.1,2.5-2.5V6
			C15.5,4.6,14.4,3.5,13,3.5z"/>
	</g>
	<g>
		<path class="st1" d="M13,3.5H3C1.6,3.5,0.5,4.6,0.5,6v7c0,1.4,1.1,2.5,2.5,2.5h10c1.4,0,2.5-1.1,2.5-2.5V6
			C15.5,4.6,14.4,3.5,13,3.5z"/>
	</g>
</g>
<path class="st2" d="M5.5,0.5h5v10h-5V0.5z"/>
</svg>
