<?xml version="1.0" encoding="utf-8"?>
<!-- Generator: Adobe Illustrator 22.1.0, SVG Export Plug-In . SVG Version: 6.00 Build 0)  -->
<svg version="1.1" id="レイヤー_1" xmlns="http://www.w3.org/2000/svg" xmlns:xlink="http://www.w3.org/1999/xlink" x="0px"
	 y="0px" viewBox="0 0 514 514" style="enable-background:new 0 0 514 514;" xml:space="preserve">
<style type="text/css">
	.st0{fill:#DDDDDD;}
	.st1{fill:#FDAE3A;}
	.st2{opacity:0.3;}
	.st3{fill:url(#SVGID_1_);}
	.st4{fill:#EA407A;}
	.st5{opacity:0.6;}
	.st6{fill:url(#SVGID_2_);}
	.st7{fill:#6F98FF;}
	.st8{fill:#03A9F5;}
	.st9{fill:#BABABA;}
	.st10{fill:none;}
	.st11{opacity:0.5;fill:#EEEEEF;}
	.st12{fill:url(#SVGID_3_);}
	.st13{fill:url(#SVGID_4_);}
	.st14{fill:#D7E9F4;}
	.st15{fill:url(#SVGID_5_);}
	.st16{opacity:0.3;fill:#D7E9F4;}
	.st17{fill:#C5D7FC;}
	.st18{fill:#F4E3E6;}
	.st19{fill:#FFFFFF;}
	.st20{fill:url(#SVGID_6_);}
	.st21{fill:none;stroke:url(#SVGID_7_);stroke-width:3;stroke-miterlimit:10;}
	.st22{fill:url(#SVGID_8_);}
	.st23{fill:#F4EBE3;}
	.st24{fill:url(#SVGID_9_);}
	.st25{fill:url(#SVGID_10_);}
	.st26{fill:url(#SVGID_11_);}
	.st27{fill:url(#SVGID_12_);}
	.st28{fill:url(#SVGID_13_);}
	.st29{fill:url(#SVGID_14_);}
	.st30{fill:url(#SVGID_15_);}
	.st31{fill:#29C84E;}
	.st32{fill:#192734;}
	.st33{fill:#364B5E;}
	.st34{fill:#C1D4E6;}
	.st35{fill:url(#SVGID_16_);}
	.st36{fill:#6187F7;}
	.st37{fill:none;stroke:url(#SVGID_17_);stroke-width:5;stroke-miterlimit:10;}
	.st38{fill:url(#SVGID_18_);}
	.st39{fill:url(#SVGID_19_);}
	.st40{fill:url(#SVGID_20_);}
	.st41{fill:url(#SVGID_21_);}
	.st42{fill:url(#SVGID_22_);}
	.st43{fill:url(#SVGID_23_);}
	.st44{fill:none;stroke:#F4EBE3;stroke-width:4;stroke-miterlimit:10;}
	.st45{fill:url(#SVGID_24_);}
	.st46{fill:url(#SVGID_25_);}
	.st47{fill:url(#SVGID_26_);}
	.st48{fill:url(#SVGID_27_);}
	.st49{fill:none;stroke:#FDAE3A;stroke-width:3;stroke-miterlimit:10;}
	.st50{fill:url(#SVGID_28_);}
	.st51{font-family:'DINOT-Black';}
	.st52{font-size:381.2809px;}
	.st53{fill:url(#SVGID_29_);}
	.st54{fill:url(#SVGID_30_);}
	.st55{fill:url(#SVGID_31_);}
	.st56{fill:url(#SVGID_32_);}
	.st57{fill:url(#SVGID_33_);}
	.st58{fill:url(#SVGID_34_);}
	.st59{fill:url(#SVGID_35_);}
	.st60{fill:url(#SVGID_36_);}
	.st61{fill:url(#SVGID_37_);}
	.st62{fill:url(#SVGID_38_);}
	.st63{fill:url(#SVGID_39_);}
	.st64{fill:url(#SVGID_40_);}
	.st65{fill:url(#SVGID_41_);}
	.st66{fill:url(#SVGID_42_);}
	.st67{fill:none;stroke:#F4EBE3;stroke-width:3;stroke-miterlimit:10;}
</style>
<path class="st8" d="M496,522.5H18.2c-14.7,0-26.6-11.9-26.6-26.6V18.1C-8.4,3.4,3.5-8.5,18.2-8.5H496c14.7,0,26.6,11.9,26.6,26.6
	v477.8C522.6,510.6,510.7,522.5,496,522.5z"/>
<g class="st5">
	<linearGradient id="SVGID_1_" gradientUnits="userSpaceOnUse" x1="256.8115" y1="-8.5039" x2="256.8115" y2="522.3781">
		<stop  offset="0" style="stop-color:#00B9F5"/>
		<stop  offset="0" style="stop-color:#6F98FF;stop-opacity:0"/>
		<stop  offset="1" style="stop-color:#4B8FC0;stop-opacity:0.7"/>
	</linearGradient>
	<path class="st3" d="M495.7-8.5H17.9C3.3-8.5-8.6,3.4-8.6,18v477.8c0,14.7,11.9,26.6,26.6,26.6h477.8c14.7,0,26.6-11.9,26.6-26.6
		V18C522.3,3.4,510.4-8.5,495.7-8.5z M482.5,460c0,12.5-10.1,22.6-22.6,22.6H53.7c-12.5,0-22.6-10.1-22.6-22.6V53.8
		c0-12.5,10.1-22.6,22.6-22.6h406.2c12.5,0,22.6,10.1,22.6,22.6V460z"/>
</g>
<text transform="matrix(1 0 0 1 128.5293 379.416)" class="st14 st51 st52">R</text>
</svg>
