<?xml version="1.0" encoding="utf-8"?>
<!-- Generator: Adobe Illustrator 22.1.0, SVG Export Plug-In . SVG Version: 6.00 Build 0)  -->
<svg version="1.1" id="レイヤー_1" xmlns="http://www.w3.org/2000/svg" xmlns:xlink="http://www.w3.org/1999/xlink" x="0px"
	 y="0px" viewBox="0 0 80 80" style="enable-background:new 0 0 80 80;" xml:space="preserve">
<style type="text/css">
	.st0{fill:#DDDDDD;}
	.st1{fill:#FDAE3A;}
	.st2{opacity:0.3;}
	.st3{fill:url(#SVGID_1_);}
	.st4{fill:#EA407A;}
	.st5{opacity:0.6;}
	.st6{fill:url(#SVGID_2_);}
	.st7{fill:#6F98FF;}
	.st8{fill:#03A9F5;}
	.st9{fill:#BABABA;}
	.st10{fill:none;}
	.st11{opacity:0.5;fill:#EEEEEF;}
	.st12{fill:url(#SVGID_3_);}
	.st13{fill:url(#SVGID_4_);}
	.st14{fill:#D7E9F4;}
	.st15{fill:url(#SVGID_5_);}
	.st16{opacity:0.3;fill:#D7E9F4;}
	.st17{fill:#C5D7FC;}
	.st18{fill:#F4E3E6;}
	.st19{fill:#FFFFFF;}
	.st20{fill:url(#SVGID_6_);}
	.st21{fill:none;stroke:url(#SVGID_7_);stroke-width:3;stroke-miterlimit:10;}
	.st22{fill:url(#SVGID_8_);}
	.st23{fill:#F4EBE3;}
	.st24{fill:url(#SVGID_9_);}
	.st25{fill:url(#SVGID_10_);}
	.st26{fill:url(#SVGID_11_);}
	.st27{fill:url(#SVGID_12_);}
	.st28{fill:url(#SVGID_13_);}
	.st29{fill:url(#SVGID_14_);}
	.st30{fill:url(#SVGID_15_);}
	.st31{fill:#29C84E;}
	.st32{fill:#192734;}
	.st33{fill:#364B5E;}
	.st34{fill:#C1D4E6;}
	.st35{fill:url(#SVGID_16_);}
	.st36{fill:#6187F7;}
	.st37{fill:none;stroke:url(#SVGID_17_);stroke-width:5;stroke-miterlimit:10;}
	.st38{fill:url(#SVGID_18_);}
	.st39{fill:url(#SVGID_19_);}
	.st40{fill:url(#SVGID_20_);}
	.st41{fill:url(#SVGID_21_);}
	.st42{fill:url(#SVGID_22_);}
	.st43{fill:url(#SVGID_23_);}
	.st44{fill:none;stroke:#F4EBE3;stroke-width:4;stroke-miterlimit:10;}
	.st45{fill:url(#SVGID_24_);}
	.st46{fill:url(#SVGID_25_);}
	.st47{fill:url(#SVGID_26_);}
	.st48{fill:url(#SVGID_27_);}
	.st49{fill:none;stroke:#FDAE3A;stroke-width:3;stroke-miterlimit:10;}
	.st50{fill:url(#SVGID_28_);}
	.st51{fill:url(#SVGID_29_);}
	.st52{fill:url(#SVGID_30_);}
	.st53{fill:url(#SVGID_31_);}
	.st54{fill:url(#SVGID_32_);}
	.st55{fill:url(#SVGID_33_);}
	.st56{fill:url(#SVGID_34_);}
	.st57{fill:url(#SVGID_35_);}
	.st58{fill:url(#SVGID_36_);}
	.st59{fill:url(#SVGID_37_);}
	.st60{fill:url(#SVGID_38_);}
	.st61{fill:url(#SVGID_39_);}
	.st62{fill:url(#SVGID_40_);}
	.st63{fill:url(#SVGID_41_);}
	.st64{fill:url(#SVGID_42_);}
	.st65{fill:none;stroke:#F4EBE3;stroke-width:3;stroke-miterlimit:10;}
</style>
<path class="st8" d="M80,4v72c0,2.2-1.8,4-4,4H4c-2.2,0-4-1.8-4-4L0,4c0-2.2,1.8-4,4-4l72,0C78.2,0,80,1.8,80,4z"/>
<g class="st5">
	<linearGradient id="SVGID_1_" gradientUnits="userSpaceOnUse" x1="39.9716" y1="-9.518838e-03" x2="39.9716" y2="79.9716">
		<stop  offset="0" style="stop-color:#00B9F5"/>
		<stop  offset="0" style="stop-color:#6F98FF;stop-opacity:0"/>
		<stop  offset="1" style="stop-color:#4B8FC0;stop-opacity:0.7"/>
	</linearGradient>
	<path class="st3" d="M76,0H4C1.8,0,0,1.8,0,4v72c0,2.2,1.8,4,4,4h72c2.2,0,4-1.8,4-4V4C80,1.8,78.2,0,76,0z M74,70.6
		c0,1.9-1.5,3.4-3.4,3.4H9.4C7.5,74,6,72.5,6,70.6V9.4C6,7.5,7.5,6,9.4,6h61.2C72.4,6,74,7.5,74,9.4V70.6z"/>
</g>
<path class="st14" d="M51.9,23.1c1.5-0.8,2.6-0.2,2.6,1.3v33.3c0,1.6-1.2,2.2-2.6,1.3L23.3,42.6c-1.5-0.8-1.5-2.2,0-3L51.9,23.1z"/>
</svg>
