<?xml version="1.0" encoding="utf-8"?>
<!-- Generator: Adobe Illustrator 22.1.0, SVG Export Plug-In . SVG Version: 6.00 Build 0)  -->
<svg version="1.1" id="レイヤー_1" xmlns="http://www.w3.org/2000/svg" xmlns:xlink="http://www.w3.org/1999/xlink" x="0px"
	 y="0px" viewBox="0 0 100 100" style="enable-background:new 0 0 100 100;" xml:space="preserve">
<style type="text/css">
	.st0{fill:url(#SVGID_1_);}
	.st1{fill:url(#SVGID_2_);}
	.st2{fill:url(#SVGID_3_);}
	.st3{fill:url(#SVGID_4_);}
	.st4{fill:url(#SVGID_5_);}
	.st5{fill:#C6C6C6;}
	.st6{fill:#E8E8E8;}
	.st7{fill:#EFEFEF;}
	.st8{fill:url(#SVGID_6_);}
	.st9{fill:#FFFFFF;}
	.st10{fill:url(#SVGID_7_);stroke:#AB1F24;stroke-width:2;stroke-miterlimit:10;}
	.st11{fill:url(#SVGID_8_);}
	.st12{fill:none;stroke:url(#SVGID_9_);stroke-width:3;stroke-miterlimit:10;}
</style>
<linearGradient id="SVGID_1_" gradientUnits="userSpaceOnUse" x1="50" y1="6.788468e-09" x2="50" y2="99.8736">
	<stop  offset="0" style="stop-color:#E5AE00"/>
	<stop  offset="1" style="stop-color:#EB9000"/>
</linearGradient>
<path class="st0" d="M89.9,99.9H10.1c-5.5,0-10-4.5-10-10l0-79.9c0-5.5,4.5-10,10-10l79.9,0c5.5,0,10,4.5,10,10v79.9
	C99.9,95.4,95.5,99.9,89.9,99.9z"/>
<path class="st9" d="M16.2,42v14l12.1,7V49L16.2,42z M20.5,55.1c-0.8-0.5-1.5-1.6-1.5-2.5c0-0.9,0.7-1.3,1.5-0.8
	c0.8,0.5,1.5,1.6,1.5,2.5C22,55.2,21.3,55.6,20.5,55.1z M24,53.1c-0.8-0.5-1.5-1.6-1.5-2.5c0-0.9,0.7-1.3,1.5-0.8
	c0.8,0.5,1.5,1.6,1.5,2.5C25.4,53.2,24.8,53.6,24,53.1z"/>
<path class="st9" d="M29.1,49v14l12.1-7V42L29.1,49z M32.7,58.5c-0.8,0.5-1.5,0.1-1.5-0.8c0-0.9,0.7-2.1,1.5-2.5
	c0.8-0.5,1.5-0.1,1.5,0.8C34.1,56.9,33.5,58,32.7,58.5z M35.1,54.1c-0.8,0.5-1.5,0.1-1.5-0.8c0-0.9,0.7-2.1,1.5-2.5
	c0.8-0.5,1.5-0.1,1.5,0.8C36.6,52.5,36,53.7,35.1,54.1z M37.6,49.8c-0.8,0.5-1.5,0.1-1.5-0.8c0-0.9,0.6-2.1,1.5-2.5
	c0.8-0.5,1.5-0.1,1.5,0.8C39.1,48.2,38.5,49.3,37.6,49.8z"/>
<path class="st9" d="M28.7,34.3l-12.1,7l12.1,7l12.1-7L28.7,34.3z M30.9,42.1c-1.2,0.7-3.1,0.7-4.3,0c-1.2-0.7-1.2-1.8,0-2.5
	c1.2-0.7,3.1-0.7,4.3,0C32.1,40.3,32.1,41.4,30.9,42.1z"/>
<g>
	<g>
		<path class="st9" d="M60.4,82.2v-3.7l8.3-9.6c0.8-1,1.2-1.7,1.2-2.7c0-1.7-1-2.8-2.7-2.8c-1.3,0-2.7,0.7-2.7,2.8h-4.1
			c0-4.1,3-6.5,6.8-6.5c3.9,0,6.7,2.5,6.7,6.5c0,2.2-0.8,3.3-2.4,5.1l-6.2,7.2h8.6v3.7H60.4z"/>
	</g>
	<g>
		<path class="st9" d="M66.3,40V22.1l-4.5,3.9v-4.4l4.5-3.9h4.1V40H66.3z"/>
	</g>
	<rect x="47.6" y="47.8" class="st9" width="38.8" height="3.9"/>
</g>
</svg>
